<?xml version="1.0" standalone="no"?>
<!DOCTYPE svg PUBLIC "-//W3C//DTD SVG 20010904//EN"
 "http://www.w3.org/TR/2001/REC-SVG-20010904/DTD/svg10.dtd">
<svg version="1.0" xmlns="http://www.w3.org/2000/svg"
 width="200.000000pt" height="200.000000pt" viewBox="0 0 200.000000 200.000000"
 preserveAspectRatio="xMidYMid meet">
<metadata>
Created by potrace 1.11, written by Peter Selinger 2001-2013
</metadata>
<g transform="translate(0.000000,200.000000) scale(0.100000,-0.100000)"
fill="#000000" stroke="none">
<path d="M840 1996 c0 -2 7 -6 15 -10 8 -3 15 -1 15 4 0 6 -7 10 -15 10 -8 0
-15 -2 -15 -4z"/>
<path d="M1985 1980 c-3 -5 -1 -10 4 -10 6 0 11 5 11 10 0 6 -2 10 -4 10 -3 0
-8 -4 -11 -10z"/>
<path d="M1610 1935 c0 -30 11 -32 33 -7 23 25 21 32 -8 32 -20 0 -25 -5 -25
-25z"/>
<path d="M1710 1947 c0 -8 -7 -17 -15 -21 -8 -3 -15 -10 -15 -15 0 -6 6 -8 14
-5 9 3 16 -2 18 -13 2 -10 6 -1 9 20 3 21 1 40 -3 43 -4 3 -8 -1 -8 -9z"/>
<path d="M115 1901 c4 -13 2 -21 -5 -21 -6 0 -8 -4 -5 -10 3 -5 10 -10 16 -10
13 0 11 47 -2 56 -8 4 -9 0 -4 -15z"/>
<path d="M1010 1899 c0 -25 -71 -49 -140 -49 -57 0 -60 1 -60 25 0 34 -17 32
-25 -2 -3 -16 -41 -67 -84 -115 -85 -95 -113 -152 -131 -266 -8 -46 -17 -70
-30 -79 -11 -8 -20 -24 -20 -36 0 -18 2 -19 10 -7 8 13 10 12 10 -2 0 -10 -5
-18 -12 -18 -9 0 -9 -3 0 -12 7 -7 12 -23 11 -38 0 -24 -1 -24 -9 -3 -12 29
-40 43 -89 43 -31 0 -41 -4 -46 -20 -7 -21 -30 -27 -40 -10 -3 6 -45 10 -93
10 -48 0 -92 4 -99 8 -6 4 -17 36 -24 71 -8 38 -20 66 -29 69 -21 8 -49 44
-50 64 0 20 -26 48 -45 48 -18 0 -21 -190 -3 -202 10 -6 10 -8 1 -8 -10 0 -13
-152 -13 -685 l0 -685 1000 0 1000 0 0 811 c0 893 4 844 -62 837 -39 -4 -51
-28 -14 -28 19 0 26 -5 26 -19 0 -11 8 -22 18 -24 14 -4 14 -5 1 -6 -13 -1
-17 -19 -22 -98 -4 -54 -7 -122 -7 -150 l0 -53 -81 0 c-47 0 -78 4 -74 9 3 5
1 12 -5 16 -5 3 -10 23 -11 43 -1 34 -2 35 -9 12 -7 -18 -9 -8 -8 37 1 35 -2
66 -5 70 -4 3 -7 30 -7 60 l0 53 -35 0 c-33 0 -35 -2 -35 -34 0 -19 -4 -46
-10 -60 -8 -22 -16 -26 -49 -26 l-40 0 -3 -90 -3 -91 -103 -2 -103 -2 -5 59
c-2 32 -8 75 -14 95 -18 64 -14 81 19 81 34 0 44 10 31 30 -12 20 -50 23 -50
4 0 -26 -24 -11 -42 27 -27 57 -31 79 -15 79 12 0 27 19 27 35 0 6 -35 0 -40
-7 -3 -3 -20 11 -39 33 -18 22 -31 42 -28 45 2 3 60 13 128 23 89 14 111 19
79 21 -129 5 -158 5 -186 -1 -26 -5 -34 -2 -49 21 -20 29 -92 70 -125 70 -10
0 -24 8 -29 18 -9 15 -10 15 -11 1z m55 -419 c15 -2 -27 -18 -49 -19 -15 -1
-16 2 -7 13 7 8 20 13 29 11 9 -2 22 -4 27 -5z m-985 -14 c0 -3 -4 -8 -10 -11
-5 -3 -10 -1 -10 4 0 6 5 11 10 11 6 0 10 -2 10 -4z m477 -108 c-3 -8 -6 -5
-6 6 -1 11 2 17 5 13 3 -3 4 -12 1 -19z m623 -34 c12 -31 6 -44 -21 -44 -10 0
-19 -4 -19 -10 0 -5 5 -10 10 -10 6 0 10 -6 10 -14 0 -16 -43 -27 -62 -15 -7
5 -23 9 -36 9 -24 0 -62 18 -74 35 -9 13 17 23 67 25 36 2 38 3 15 11 -20 7
-17 8 15 4 24 -3 35 -1 26 4 -9 6 -10 10 -2 16 7 4 19 1 27 -6 8 -7 14 -8 13
-3 -6 33 18 32 31 -2z m-276 0 c8 -21 3 -26 -17 -18 -9 3 -13 12 -10 20 7 19
19 18 27 -2z m-334 -25 c0 -10 -4 -19 -10 -19 -5 0 -10 12 -10 26 0 14 4 23
10 19 6 -3 10 -15 10 -26z m-250 1 c-10 -6 -11 -10 -2 -10 6 0 12 -4 12 -9 0
-10 -76 -8 -86 2 -4 4 4 8 17 8 15 1 9 5 -16 9 -36 6 -34 7 25 8 45 1 60 -1
50 -8z m650 -45 c0 -3 -12 -4 -27 -3 -25 3 -28 0 -28 -24 1 -30 -19 -38 -29
-12 -3 9 -6 29 -6 46 0 25 3 29 20 25 11 -3 22 -1 25 4 5 8 45 -24 45 -36z
m-9 -48 c-10 -9 -11 -8 -5 6 3 10 9 15 12 12 3 -3 0 -11 -7 -18z m-393 -4 c2
-8 -6 -13 -22 -13 -17 0 -26 5 -26 16 0 19 41 16 48 -3z m867 -3 c-3 -5 -12
-7 -20 -3 -21 7 -19 13 6 13 11 0 18 -4 14 -10z m-985 -30 c0 -5 -4 -10 -10
-10 -5 0 -10 5 -10 10 0 6 5 10 10 10 6 0 10 -4 10 -10z m1108 -12 c17 -17 15
-33 -3 -18 -12 10 -15 9 -16 -6 0 -11 -3 -14 -6 -6 -2 6 -10 9 -16 5 -7 -4
-16 -8 -22 -9 -5 -1 -18 -5 -29 -9 -14 -6 -17 -4 -14 11 6 35 81 57 106 32z
m-1428 -69 c0 -18 -18 -9 -23 12 -4 16 -3 18 9 8 8 -6 14 -15 14 -20z m30 -69
c0 -11 -4 -20 -10 -20 -5 0 -10 9 -10 20 0 11 5 20 10 20 6 0 10 -9 10 -20z
m-130 -44 c-7 -7 -10 1 -9 25 0 32 1 33 10 10 6 -16 6 -28 -1 -35z m131 -49
c-8 -8 -11 -3 -11 19 1 25 2 27 11 11 8 -14 8 -22 0 -30z m9 -54 c0 -20 -3
-24 -11 -16 -7 7 -9 19 -6 27 10 24 17 19 17 -11z m10 -63 c0 -5 -4 -10 -10
-10 -5 0 -10 5 -10 10 0 6 5 10 10 10 6 0 10 -4 10 -10z m363 -47 c-13 -2 -33
-2 -45 0 -13 2 -3 4 22 4 25 0 35 -2 23 -4z m0 -20 c-13 -2 -33 -2 -45 0 -13
2 -3 4 22 4 25 0 35 -2 23 -4z"/>
<path d="M1633 1875 c-17 -18 -16 -22 2 -22 8 0 15 9 15 19 0 21 -1 22 -17 3z"/>
<path d="M235 1858 c-38 -20 -95 -82 -95 -102 0 -15 7 -11 35 21 55 65 120 77
170 33 11 -9 26 -20 33 -25 31 -17 -10 35 -46 60 -40 27 -66 31 -97 13z"/>
<path d="M223 1696 c-36 -16 -73 -69 -73 -102 0 -24 38 -39 71 -29 25 8 25 25
-1 20 -15 -3 -20 2 -20 19 0 12 -5 27 -11 33 -7 7 -2 17 18 33 28 22 80 24
128 5 18 -7 18 -6 -2 9 -32 24 -73 28 -110 12z"/>
<path d="M1375 1681 c-13 -13 -2 -28 20 -28 17 0 25 5 25 16 0 15 -34 24 -45
12z"/>
<path d="M1316 1664 c-8 -22 -9 -22 18 -17 16 3 23 10 19 19 -7 19 -29 18 -37
-2z"/>
<path d="M1565 1639 c4 -5 13 -8 20 -5 8 3 11 -2 8 -15 -4 -15 0 -19 20 -19
14 0 29 4 32 10 4 6 16 4 31 -6 23 -15 28 -15 76 5 28 11 57 21 64 21 7 0 15
3 17 8 3 4 -58 8 -135 10 -98 2 -137 -1 -133 -9z"/>
<path d="M106 1602 c-3 -6 -1 -14 5 -17 14 -9 20 -2 10 14 -6 8 -11 9 -15 3z"/>
<path d="M1330 1590 c0 -5 16 -10 35 -10 19 0 35 5 35 10 0 6 -16 10 -35 10
-19 0 -35 -4 -35 -10z"/>
<path d="M1580 1535 c0 -32 2 -35 30 -35 28 0 30 3 30 35 0 32 -2 35 -30 35
-28 0 -30 -3 -30 -35z"/>
<path d="M349 1453 c-12 -15 -12 -16 4 -10 10 4 23 7 28 7 6 0 7 5 4 10 -9 15
-21 12 -36 -7z"/>
<path d="M206 1438 c-18 -25 -22 -98 -6 -98 6 0 8 10 4 24 -9 38 5 66 39 81
l32 14 -27 1 c-17 0 -33 -8 -42 -22z"/>
<path d="M1885 1350 c3 -5 8 -10 11 -10 2 0 4 5 4 10 0 6 -5 10 -11 10 -5 0
-7 -4 -4 -10z"/>
</g>
</svg>
